#!OML:ASF X:\für Bonn\!DataBase\2005_08_12_Daniel\c3d\Daniel.ASF
:FULLY-SPECIFIED
:DEGREES
1
root -5.54846 16.8525 -8.57898 -1598.58 108.235 209.972
lowerback 21.6633 -0.567858 -9.19256
upperback 7.02553 -2.46706 -6.7353
thorax -4.26526 -0.939922 -1.47639
lowerneck 5.79918 1.66555 -5.06184
upperneck 15.8617 2.34766 2.05268
head 4.13174 1.11702 1.62427
rclavicle 2.38542e-014 3.65764e-014
rhumerus -396.604 -4.57708 271.997
rradius 27.8329
rwrist 6.27731
rhand -22.4291 738.155
rfingers 7.12502
rthumb 3.99442 708.212
lclavicle 2.38542e-014 3.65764e-014
lhumerus -573.989 131.643 -492.775
lradius 17.5947
lwrist -40.1396
lhand -15.5806 -721.792
lfingers 7.12502
lthumb 10.6047 27.9208
rfemur -558.596 -160.025 552.287
rtibia 74.7674
rfoot 4.01933 14.8329
rtoes 10.6607
lfemur -11.9606 -6.98262 -22.5359
ltibia 42.4755
lfoot -21.7142 -6.04236
ltoes -0.762129
2
root -5.42846 16.8492 -8.56145 -1599.96 108.789 208.682
lowerback 21.7614 -0.677839 -8.999
upperback 7.04479 -2.58812 -6.72505
thorax -4.30193 -1.00078 -1.54191
lowerneck 6.04494 1.82777 -4.9004
upperneck 15.9447 2.57003 1.96237
head 4.10912 1.23159 1.56483
rclavicle -2.62396e-014 -3.18055e-015
rhumerus -396.752 -4.64826 271.97
rradius 28.3956
rwrist 5.84632
rhand -22.644 738.391
rfingers 7.12502
rthumb 3.78687 708.445
lclavicle -2.62396e-014 -3.18055e-015
lhumerus -572.761 132.656 -491.654
lradius 17.7141
lwrist -39.2635
lhand -15.824 -721.691
lfingers 7.12502
lthumb 10.37 28.033
rfemur -559.615 -159.892 552.782
rtibia 73.8157
rfoot 3.5584 15.2648
rtoes 10.3609
lfemur -11.4276 -6.65266 -22.5004
ltibia 42.8202
lfoot -22.1147 -5.8799
ltoes -0.930633
3
root -5.30892 16.8486 -8.54102 -1601.17 109.34 207.541
lowerback 21.832 -0.78969 -8.81717
upperback 7.06176 -2.71029 -6.71013
thorax -4.3266 -1.06284 -1.59561
lowerneck 6.33596 1.9918 -4.72689
upperneck 15.9978 2.7956 1.84981
head 4.06833 1.34797 1.49409
rclavicle -2.50469e-014 -3.81667e-014
rhumerus -396.95 -4.63972 271.932
rradius 28.9861
rwrist 5.55945
rhand -22.8278 738.576
rfingers 7.12502
rthumb 3.60939 708.627
lclavicle -2.50469e-014 -3.81667e-014
lhumerus -571.52 133.819 -490.494
lradius 17.8946
lwrist -38.1571
lhand -16.0292 -721.699
lfingers 7.12502
lthumb 10.1719 28.0352
rfemur -560.62 -159.794 553.228
rtibia 72.7726
rfoot 3.28456 15.5946
rtoes 10.5332
lfemur -10.8744 -6.34799 -22.4791
ltibia 43.0874
lfoot -22.4782 -5.70929
ltoes -1.02897
4
root -5.19001 16.8514 -8.51846 -1602.36 109.901 206.456
lowerback 21.9434 -0.898872 -8.63287
upperback 7.07499 -2.83347 -6.68663
thorax -4.37647 -1.12456 -1.64051
lowerneck 6.63294 2.1528 -4.63698
upperneck 16.0425 3.00868 1.78951
head 4.02366 1.45549 1.455
rclavicle -7.03698e-014 2.54444e-014
rhumerus -397.154 -4.56427 271.87
rradius 29.5476
rwrist 5.29757
rhand -22.9394 738.736
rfingers 7.12502
rthumb 3.50158 708.785
lclavicle -7.03698e-014 2.54444e-014
lhumerus -570.353 135.133 -489.344
lradius 18.1924
lwrist -36.9265
lhand -16.1181 -721.72
lfingers 7.12502
lthumb 10.0862 28.0182
rfemur -561.571 -159.731 553.659
rtibia 71.6378
rfoot 3.07318 15.8074
rtoes 11.0842
lfemur -10.2357 -6.00933 -22.4535
ltibia 43.2697
lfoot -22.8706 -5.52451
ltoes -1.27259
5
root -5.07162 16.8555 -8.4934 -1603.45 110.463 205.447
lowerback 22.026 -1.008 -8.46767
upperback 7.09748 -2.95445 -6.64933
thorax -4.39996 -1.1864 -1.66044
lowerneck 6.83735 2.31586 -4.5981
upperneck 16.1172 3.22023 1.78728
head 4.00628 1.56073 1.44652
rclavicle -3.22031e-014 3.02153e-014
rhumerus -397.329 -4.4841 271.814
rradius 30.077
rwrist 5.11671
rhand -22.9436 738.817
rfingers 7.12502
rthumb 3.49756 708.866
lclavicle -3.22031e-014 3.02153e-014
lhumerus -569.229 136.557 -488.202
lradius 18.5761
lwrist -35.6108
lhand -16.064 -721.853
lfingers 7.12502
lthumb 10.1384 27.8829
rfemur -562.526 -159.661 554.096
rtibia 70.4147
rfoot 2.87601 15.8318
rtoes 13.1903
lfemur -9.5857 -5.64624 -22.4154
ltibia 43.3752
lfoot -23.2466 -5.39481
ltoes -1.38376
6
root -4.95356 16.8582 -8.46656 -1604.46 111.027 204.536
lowerback 22.1152 -1.11641 -8.31858
upperback 7.12306 -3.07727 -6.60417
thorax -4.42222 -1.24917 -1.66216
lowerneck 7.04148 2.46507 -4.60142
upperneck 16.182 3.41202 1.77853
head 3.98605 1.65357 1.44255
rclavicle -2.5842e-014 -3.18055e-015
rhumerus -397.484 -4.34781 271.756
rradius 30.5472
rwrist 4.94716
rhand -22.8807 738.905
rfingers 7.12502
rthumb 3.55835 708.955
lclavicle -2.5842e-014 -3.18055e-015
lhumerus -568.164 138.02 -487.124
lradius 18.9984
lwrist -34.2704
lhand -15.956 -721.985
lfingers 7.12502
lthumb 10.2426 27.7452
rfemur -563.424 -159.579 554.522
rtibia 69.0944
rfoot 2.58707 15.7211
rtoes 15.1874
lfemur -8.89045 -5.30916 -22.4019
ltibia 43.4217
lfoot -23.6469 -5.18449
ltoes -1.67075
7
root -4.83634 16.8595 -8.43895 -1605.46 111.585 203.643
lowerback 22.2283 -1.22269 -8.1383
upperback 7.1482 -3.19301 -6.55276
thorax -4.45933 -1.30794 -1.67565
lowerneck 7.17177 2.60233 -4.61902
upperneck 16.28 3.58724 1.80151
head 3.99143 1.73801 1.45371
rclavicle 1.03766e-013 3.18055e-014
rhumerus -397.607 -4.24086 271.701
rradius 30.9403
rwrist 4.8717
rhand -22.7308 738.896
rfingers 7.12502
rthumb 3.70303 708.948
lclavicle 1.03766e-013 3.18055e-014
lhumerus -567.133 139.649 -486.055
lradius 19.4882
lwrist -32.8474
lhand -15.77 -722.105
lfingers 7.12502
lthumb 10.422 27.6162
rfemur -564.274 -159.497 554.957
rtibia 67.6883
rfoot 2.10492 15.4622
rtoes 16.3232
lfemur -8.17264 -4.93452 -22.3546
ltibia 43.4227
lfoot -23.9955 -5.05108
ltoes -1.81278
8
root -4.71919 16.8587 -8.40916 -1606.38 112.157 202.828
lowerback 22.3581 -1.32443 -7.99001
upperback 7.16684 -3.31153 -6.49684
thorax -4.50982 -1.36763 -1.6651
lowerneck 7.29047 2.74461 -4.65548
upperneck 16.3648 3.76725 1.82925
head 3.99359 1.82369 1.46958
rclavicle -7.15625e-015 -1.59028e-015
rhumerus -397.746 -4.0528 271.612
rradius 31.3251
rwrist 4.76249
rhand -22.5427 738.83
rfingers 7.12502
rthumb 3.88469 708.885
lclavicle -7.15625e-015 -1.59028e-015
lhumerus -566.201 141.332 -485.083
lradius 19.9965
lwrist -31.3938
lhand -15.6533 -722.312
lfingers 7.12502
lthumb 10.5346 27.4041
rfemur -565.071 -159.449 555.38
rtibia 66.2123
rfoot 1.22774 15.0422
rtoes 15.7216
lfemur -7.41985 -4.57265 -22.3265
ltibia 43.3846
lfoot -24.3697 -4.91023
ltoes -1.92987
9
root -4.6026 16.8557 -8.37798 -1607.26 112.723 202.065
lowerback 22.5057 -1.42147 -7.83906
upperback 7.19535 -3.42241 -6.42821
thorax -4.55816 -1.42354 -1.64359
lowerneck 7.38903 2.88301 -4.71126
upperneck 16.3874 3.93786 1.86239
head 3.97647 1.90367 1.48936
rclavicle 3.1408e-014 5.56597e-014
rhumerus -397.811 -3.81625 271.514
rradius 31.6148
rwrist 4.64657
rhand -22.2698 738.717
rfingers 7.12502
rthumb 4.14829 708.778
lclavicle 3.1408e-014 5.56597e-014
lhumerus -565.296 143.097 -484.115
lradius 20.552
lwrist -29.9788
lhand -15.5523 -722.433
lfingers 7.12502
lthumb 10.632 27.2783
rfemur -565.815 -159.397 555.799
rtibia 64.6782
rfoot 0.0703732 14.5056
rtoes 13.8982
lfemur -6.64759 -4.17642 -22.2891
ltibia 43.3108
lfoot -24.7626 -4.75547
ltoes -2.19077
10
root -4.48572 16.8497 -8.34521 -1608.07 113.297 201.377
lowerback 22.665 -1.50889 -7.70396
upperback 7.22787 -3.52367 -6.35794
thorax -4.60698 -1.47444 -1.61341
lowerneck 7.52022 3.01713 -4.79413
upperneck 16.3232 4.09263 1.92369
head 3.92112 1.97556 1.52007
rclavicle -1.59028e-014 1.27222e-014
rhumerus -397.87 -3.47955 271.399
rradius 31.8515
rwrist 4.48815
rhand -21.9567 738.646
rfingers 7.12502
rthumb 4.4506 708.713
lclavicle -1.59028e-014 1.27222e-014
lhumerus -564.46 144.976 -483.181
lradius 21.1792
lwrist -28.5016
lhand -15.5238 -722.506
lfingers 7.12502
lthumb 10.6595 27.2035
rfemur -566.505 -159.353 556.196
rtibia 63.1011
rfoot -1.22901 13.8654
rtoes 12.3276
lfemur -5.85759 -3.7562 -22.259
ltibia 43.2081
lfoot -25.1447 -4.64918
ltoes -2.30563
11
root -4.36909 16.8396 -8.31145 -1608.76 113.869 200.81
lowerback 22.839 -1.59337 -7.58749
upperback 7.25375 -3.62681 -6.29146
thorax -4.66934 -1.52556 -1.57575
lowerneck 7.60476 3.15841 -4.89174
upperneck 16.2599 4.25592 2.00162
head 3.87357 2.05112 1.55978
rclavicle 8.11041e-014 4.77083e-014
rhumerus -398.003 -3.08919 271.284
rradius 32.1343
rwrist 4.36909
rhand -21.6075 738.513
rfingers 7.12502
rthumb 4.78778 708.587
lclavicle 8.11041e-014 4.77083e-014
lhumerus -563.683 146.967 -482.284
lradius 21.8422
lwrist -27.0363
lhand -15.597 -722.466
lfingers 7.12502
lthumb 10.5889 27.2474
rfemur -567.137 -159.267 556.545
rtibia 61.4709
rfoot -2.55138 13.1826
rtoes 10.7172
lfemur -5.05033 -3.35696 -22.2685
ltibia 43.0672
lfoot -25.5811 -4.51801
ltoes -2.48424
12
root -4.25208 16.8249 -8.27661 -1609.47 114.448 200.227
lowerback 23.0359 -1.66832 -7.47834
upperback 7.27578 -3.72019 -6.19277
thorax -4.74492 -1.572 -1.50042
lowerneck 7.65322 3.29359 -4.97522
upperneck 16.2052 4.42125 2.00955
head 3.83718 2.12596 1.57445
rclavicle 1.51076e-014 7.4743e-014
rhumerus -398.093 -2.60019 271.177
rradius 32.3248
rwrist 4.23452
rhand -21.2202 738.413
rfingers 7.12502
rthumb 5.16169 708.496
lclavicle 1.51076e-014 7.4743e-014
lhumerus -563.026 148.845 -481.473
lradius 22.5648
lwrist -25.684
lhand -15.6984 -722.437
lfingers 7.12502
lthumb 10.4911 27.2815
rfemur -567.696 -159.246 556.901
rtibia 59.7845
rfoot -3.81797 12.4211
rtoes 8.70063
lfemur -4.21317 -2.94148 -22.2573
ltibia 42.8884
lfoot -26.0647 -4.40869
ltoes -2.44603
13
root -4.13427 16.8072 -8.23936 -1610.07 115.019 199.757
lowerback 23.2112 -1.73733 -7.38374
upperback 7.32345 -3.80181 -6.10338
thorax -4.78071 -1.61321 -1.4307
lowerneck 7.6718 3.43064 -5.06561
upperneck 16.1655 4.58859 2.03578
head 3.81092 2.20191 1.59744
rclavicle 3.29983e-014 -5.40694e-014
rhumerus -398.019 -2.28172 271.135
rradius 32.3663
rwrist 4.36678
rhand -20.8043 738.33
rfingers 7.12502
rthumb 5.56333 708.423
lclavicle 3.29983e-014 -5.40694e-014
lhumerus -562.362 150.832 -480.675
lradius 23.3135
lwrist -24.2577
lhand -15.8608 -722.282
lfingers 7.12502
lthumb 10.3345 27.4444
rfemur -568.171 -159.321 557.174
rtibia 58.0349
rfoot -4.98533 11.55
rtoes 7.06726
lfemur -3.33504 -2.56574 -22.2855
ltibia 42.6369
lfoot -26.5822 -4.27932
ltoes -2.42009
